<svg xmlns="http://www.w3.org/2000/svg" viewBox="0 0 41.63 91.84"><defs><style>.cls-1{fill:#2a2436;}</style></defs><title>Asset2</title><g id="Layer_2" data-name="Layer 2"><g id="Layout_Shit" data-name="Layout Shit"><path class="cls-1" d="M36.71,32.62l-.76,2.53L35.05,38l-.51,1.78c-.18.63-.45,1.26-.67,1.94C32.95,44.49,32,47.69,31,51.15s-1.83,7.18-2.7,10.91L23.64,82.61c-.17.7-.28,1.38-.47,2l-.53,1.79-.86,2.91L21,91.84l.4-2.61.49-3,.3-1.84c.1-.65.31-1.31.45-2l4.69-20.55c.87-3.73,1.77-7.47,2.71-10.95s1.92-6.7,2.85-9.43c.25-.68.42-1.35.68-2l.74-1.72L35.59,35Z"/><path class="cls-1" d="M37.78,12.31s-.06.77-.23,2.12l-.32,2.42L37,18.34c-.08.52-.25,1.05-.37,1.62-1,4.51-2.65,10.48-4.58,16.35-1,2.93-2,5.85-3,8.55S27,50.05,26,52.19c-.26.52-.45,1-.72,1.49L24.54,55,23.33,57.1l-1.08,1.83.74-2,.87-2.28.54-1.4c.18-.5.47-1,.7-1.5.93-2.08,2-4.58,3-7.26s2.06-5.59,3-8.5c1.92-5.84,3.52-11.78,4.56-16.27.14-.56.22-1.11.37-1.61l.44-1.43.69-2.34Z"/><path class="cls-1" d="M36.68,0C34,4.16,31.14,8.19,28.12,12.12c-.76,1-1.58,1.91-2.4,2.84s-1.66,1.85-2.57,2.72c-.45.44-.92.86-1.4,1.26l-.36.3-.41.32-.73.57-2.91,2.29,0,0-2.29,1.79-.57.45-.14.11-.06,0,.06-.07a.48.48,0,0,0,0-.51c-.77-.52-.2-.15-.37-.27h0l0,0,0,0-.08,0c-.06,0-.09,0,0,0l1.15-.9q2.33-1.78,4.8-3.35a67.18,67.18,0,0,1,10.38-5.41c.46-.19.92-.36,1.4-.52a6.36,6.36,0,0,1,.77-.19,1.53,1.53,0,0,1,1.07.11,1.27,1.27,0,0,1,.18.16l0,0,.07.14,0,0a.61.61,0,0,1,0,.1,1.2,1.2,0,0,1,0,.26.85.85,0,0,1-.09.35,1.13,1.13,0,0,1-.12.22,4.2,4.2,0,0,1-.5.65c-.35.38-.7.72-1.06,1.06-1.43,1.33-2.86,2.62-4.21,4a42.46,42.46,0,0,0-7,9.08,32.42,32.42,0,0,0-2.35,5.21,35.65,35.65,0,0,0-1.41,5.56,20.15,20.15,0,0,0-.27,5.64,4.81,4.81,0,0,0,.89,2.42A2,2,0,0,0,20,49a18.27,18.27,0,0,0,2.64-1l2.69-1.11c1.78-.77,3.61-1.42,5.42-2.11l10.9-4.08L31,45.55c-1.77.79-3.53,1.62-5.33,2.32L23,49a18.78,18.78,0,0,1-2.81,1,3.94,3.94,0,0,1-1.65,0,2.87,2.87,0,0,1-.44-.14,2.08,2.08,0,0,1-.38-.19,3.36,3.36,0,0,1-.66-.57,5.72,5.72,0,0,1-1.13-2.95,21.09,21.09,0,0,1,.28-5.94,36.74,36.74,0,0,1,1.45-5.71,33.36,33.36,0,0,1,2.43-5.38,43.46,43.46,0,0,1,7.16-9.29c1.37-1.39,2.82-2.7,4.23-4,.35-.33.69-.66,1-1a3.32,3.32,0,0,0,.39-.49.33.33,0,0,0,.05-.1s0-.08,0,0a.13.13,0,0,0,0,.08s0,0,0-.07l0,0s-.07-.13.05.09h0a.08.08,0,0,0,0,0c.07,0-.17,0-.36,0a5.41,5.41,0,0,0-.64.16c-.44.14-.88.31-1.32.49A66.16,66.16,0,0,0,20.47,20.4Q18,22,15.73,23.71l-1.14.89a1.5,1.5,0,0,1-.3.2c-.12.08-.36.09-.36.13h0c-.17-.12.36.28-.39-.26a.55.55,0,0,1,.06-.54l.09-.1.08-.07.15-.12.57-.45,2.3-1.79,0,0,2.91-2.29.73-.57.67-.54q.7-.58,1.35-1.21c.87-.84,1.7-1.75,2.51-2.67s1.58-1.88,2.39-2.81C30.62,7.8,33.69,3.93,36.68,0Z"/><path class="cls-1" d="M16.84,7.22a19.38,19.38,0,0,0,2-1.19,18.68,18.68,0,0,0,2.1-1.62c.2-.17.36-.34.62-.56A.68.68,0,0,1,22,3.68l.11,0,.05,0,.14.08,0,0,0,0,.09.12a1,1,0,0,1,.13.26l0,.15a1.73,1.73,0,0,1,0,.27,7.87,7.87,0,0,1-.17,1.94,59.69,59.69,0,0,1-2.34,8.49,91.08,91.08,0,0,1-3.79,9.32,72.3,72.3,0,0,1-4.95,8.78,74.64,74.64,0,0,1-5.27,7A21,21,0,0,1,3.8,42.77c-.76.72-1.44,1.32-2,1.82s-1,.86-1.33,1.12L0,46.1l1.54-1.78c.48-.57,1.07-1.26,1.71-2.07.33-.4.67-.83,1-1.3s.79-.89,1.19-1.38a73.65,73.65,0,0,0,5.2-6.94A71.41,71.41,0,0,0,15.54,24a90.09,90.09,0,0,0,3.75-9.22,58.83,58.83,0,0,0,2.3-8.34,11,11,0,0,0,.16-1.71,1,1,0,0,0,0-.16V4.5s0,0,0,.06l0,0,0,0,0,0,.12.07H22c.18,0,.13,0,.09,0s-.43.29-.65.43A19.24,19.24,0,0,1,19,6.36,15.64,15.64,0,0,1,17.42,7Z"/></g></g></svg>